<?xml version="1.0" encoding="UTF-8"?>
<svg version="1.1" xmlns="http://www.w3.org/2000/svg" width="500" height="500">
<path d="M0 0 C165 0 330 0 500 0 C500 165 500 330 500 500 C335 500 170 500 0 500 C0 335 0 170 0 0 Z " fill="#0C1824" transform="translate(0,0)"/>
<path d="M0 0 C7.00020084 5.52348504 13.22362384 14.17102385 15 23 C15.2441572 26.39267532 15.2310946 29.78689096 15.25 33.1875 C15.270625 34.09564453 15.29125 35.00378906 15.3125 35.93945312 C15.36153173 44.50161838 13.41145894 51.30636478 8.8125 58.5625 C8.28269531 59.40941406 7.75289063 60.25632812 7.20703125 61.12890625 C6.80871094 61.74636719 6.41039062 62.36382812 6 63 C6.58136719 63.24363281 7.16273438 63.48726563 7.76171875 63.73828125 C10.40279145 65.22705347 11.84983474 66.87643262 13.8125 69.1875 C17.97434083 73.90149218 22.240935 78.49146457 26.625 83 C27.24608643 83.65895264 27.86717285 84.31790527 28.50708008 84.99682617 C32.539528 89.10293099 35.37019457 90.82855946 41 92 C43.4375 93.625 43.4375 93.625 45 96 C45.79582586 99.98733367 45.59796696 102.96005747 43.5625 106.5 C39.75227753 108.73037413 36.30116902 108.90300786 32 108 C28.93764611 105.40877748 28.13696555 103.61643657 27.27001953 99.71459961 C25.71034606 95.15280956 23.54364814 92.89701197 20.1171875 89.62890625 C19.54292023 89.06171371 18.96865295 88.49452118 18.37698364 87.91014099 C16.55446317 86.11543071 14.7152859 84.3389707 12.875 82.5625 C11.6303649 81.34296488 10.38686247 80.12227262 9.14453125 78.90039062 C6.1092952 75.92004621 3.05900313 72.95593699 0 70 C-3.13187625 71.23582514 -6.22370291 72.52662296 -9.29296875 73.91015625 C-10.08896484 74.26013672 -10.88496094 74.61011719 -11.70507812 74.97070312 C-13.34513343 75.69201777 -14.98070342 76.42362807 -16.61132812 77.16601562 C-22.41725695 79.68891321 -27.68104757 80.72453487 -34 81 C-34 81.99 -34 82.98 -34 84 C-31.66682784 84.77772405 -29.38564077 85.42415568 -27 86 C-27 87.98 -27 89.96 -27 92 C-32.94 92 -38.88 92 -45 92 C-45 92.66 -45 93.32 -45 94 C-45.99 94.495 -45.99 94.495 -47 95 C-40.29816885 98.75956382 -34.02298633 99.14860007 -26.4375 99.1875 C-25.17808594 99.20167969 -23.91867188 99.21585937 -22.62109375 99.23046875 C-19.0220074 99.00140069 -16.35507131 98.26798557 -13 97 C-11.41777508 96.55850821 -9.83447731 96.12083859 -8.25 95.6875 C-3.52513751 94.31714713 0.52946545 92.2605551 4.7734375 89.79296875 C7 89 7 89 9.2890625 89.86328125 C9.85367188 90.23839844 10.41828125 90.61351562 11 91 C11 92.32 11 93.64 11 95 C-2.59127003 102.25411114 -13.72236129 106.32614187 -29.3125 106.4375 C-30.43430664 106.44773193 -31.55611328 106.45796387 -32.71191406 106.46850586 C-39.17223874 106.39966633 -44.11623843 105.70180038 -50 103 C-50 101.02 -50 99.04 -50 97 C-51.051875 97.515625 -52.10375 98.03125 -53.1875 98.5625 C-56.50510933 100.18877908 -58.4744915 100.12339992 -62 99 C-64.2263227 97.68675142 -66.28249794 96.37213686 -68.375 94.875 C-68.9515332 94.46612549 -69.52806641 94.05725098 -70.12207031 93.63598633 C-85.28061693 82.68648279 -96.16378775 66.47761542 -99.546875 48.015625 C-100.25968226 42.80330811 -100.14490086 37.56300966 -100.125 32.3125 C-100.12886719 31.28060547 -100.13273438 30.24871094 -100.13671875 29.18554688 C-100.13542969 28.19232422 -100.13414062 27.19910156 -100.1328125 26.17578125 C-100.13168457 25.27770752 -100.13055664 24.37963379 -100.12939453 23.4543457 C-100.00853116 21.1618184 -99.6442289 19.19658384 -99 17 C-96.69 17.33 -94.38 17.66 -92 18 C-92.01571045 18.75506836 -92.0314209 19.51013672 -92.04760742 20.28808594 C-92.11073548 23.77531157 -92.14923498 27.26241633 -92.1875 30.75 C-92.21263672 31.93722656 -92.23777344 33.12445313 -92.26367188 34.34765625 C-92.35745232 45.78887094 -90.51130738 55.56401481 -84.625 65.4375 C-84.25117188 66.10458984 -83.87734375 66.77167969 -83.4921875 67.45898438 C-81.10216612 71.59650427 -78.52156302 74.77086359 -75 78 C-75 76.35 -75 74.7 -75 73 C-74.34 73 -73.68 73 -73 73 C-73.309375 72.278125 -73.61875 71.55625 -73.9375 70.8125 C-74.92560539 68.19692691 -75.5287754 65.74881018 -76 63 C-75.34 63 -74.68 63 -74 63 C-74 62.34 -74 61.68 -74 61 C-72.02 60.505 -72.02 60.505 -70 60 C-69.67 60.99 -69.34 61.98 -69 63 C-67.62228238 61.83524938 -67.62228238 61.83524938 -67.6875 58.625 C-67.70663633 54.99547664 -68.54139049 52.4912763 -70 49.1875 C-73.58538778 40.01915124 -73.83040341 27.6523226 -70.375 18.375 C-69.63497561 16.88979425 -68.84327932 15.42910888 -68 14 C-67.36384766 12.8553125 -67.36384766 12.8553125 -66.71484375 11.6875 C-60.37530887 1.23344805 -50.79752952 -5.80832447 -39.125 -9.3125 C-25.07171508 -12.21327825 -11.46403182 -8.37990291 0 0 Z " fill="#35E5D2" transform="translate(279,184)"/>
<path d="M0 0 C1.80930485 1.08406673 3.58481647 2.22758498 5.3125 3.4375 C6.46492188 4.23220703 6.46492188 4.23220703 7.640625 5.04296875 C14.60678908 10.47399667 17.92516975 18.09231487 20.3125 26.4375 C21.44093446 37.51190329 19.471648 46.198778 13.3125 55.4375 C9.94852074 54.01371053 8.11606448 52.31139574 5.8125 49.5 C4.01101587 47.30955907 2.49303841 45.56331987 0.16015625 43.9375 C-2.064492 42.13144307 -2.29800706 41.15449679 -2.75 38.375 C-3.04211924 36.29712389 -3.04211924 36.29712389 -3.6875 34.4375 C-6.71294334 32.42053778 -7.29817382 32.17938904 -10.6875 32.25 C-11.7084375 32.25966797 -11.7084375 32.25966797 -12.75 32.26953125 C-14.90508209 32.38052254 -14.90508209 32.38052254 -17.6875 33.4375 C-17.76864106 35.20757714 -17.82675505 36.97872098 -17.875 38.75 C-17.90980469 39.73613281 -17.94460937 40.72226563 -17.98046875 41.73828125 C-17.88247738 44.3956477 -17.88247738 44.3956477 -16.61328125 46.23046875 C-14.60348462 47.69312959 -14.60348462 47.69312959 -11.43359375 47.7265625 C-6.34645552 48.69200479 -4.20565596 51.13069894 -0.75 54.8125 C-0.16154297 55.40289062 0.42691406 55.99328125 1.03320312 56.6015625 C5.3125 61.01505335 5.3125 61.01505335 5.3125 64.4375 C-5.2288538 69.89496514 -14.60653782 72.64937171 -26.57421875 69.734375 C-36.98187518 65.97295552 -45.21089159 58.66761483 -50.01171875 48.68359375 C-53.48333605 39.53557764 -54.44111096 29.56966033 -51.25 20.1875 C-46.98830456 10.96397343 -38.14490508 2.15333127 -28.73046875 -1.7890625 C-19.44302496 -4.14967081 -8.71989147 -4.13806555 0 0 Z " fill="#0C1D27" transform="translate(266.6875,184.5625)"/>
<path d="M0 0 C2.31 0.33 4.62 0.66 7 1 C6.98428955 1.75506836 6.9685791 2.51013672 6.95239258 3.28808594 C6.88926452 6.77531157 6.85076502 10.26241633 6.8125 13.75 C6.78736328 14.93722656 6.76222656 16.12445313 6.73632812 17.34765625 C6.64254768 28.78887094 8.48869262 38.56401481 14.375 48.4375 C14.74882812 49.10458984 15.12265625 49.77167969 15.5078125 50.45898438 C17.89783388 54.59650427 20.47843698 57.77086359 24 61 C24 59.35 24 57.7 24 56 C24.66 56 25.32 56 26 56 C25.690625 55.278125 25.38125 54.55625 25.0625 53.8125 C24.07439461 51.19692691 23.4712246 48.74881018 23 46 C23.66 46 24.32 46 25 46 C25 45.34 25 44.68 25 44 C26.98 43.505 26.98 43.505 29 43 C29.33 43.99 29.66 44.98 30 46 C30.66 43.69 31.32 41.38 32 39 C32.7425 39.99 32.7425 39.99 33.5 41 C41.77751768 50.93302122 50.7015681 58.7723872 64.00878906 60.21826172 C68.66747191 60.61047329 73.32841685 60.83191574 78 61 C74.83759418 63.10827055 73.49342531 63.33817465 69.8125 63.625 C68.91144531 63.69976562 68.01039063 63.77453125 67.08203125 63.8515625 C66.39496094 63.90054688 65.70789063 63.94953125 65 64 C65 64.99 65 65.98 65 67 C67.33317216 67.77772405 69.61435923 68.42415568 72 69 C72 70.98 72 72.96 72 75 C66.06 75 60.12 75 54 75 C54 75.66 54 76.32 54 77 C53.01 77.495 53.01 77.495 52 78 C58.70183115 81.75956382 64.97701367 82.14860007 72.5625 82.1875 C73.82191406 82.20167969 75.08132812 82.21585937 76.37890625 82.23046875 C79.9779926 82.00140069 82.64492869 81.26798557 86 80 C87.58222492 79.55850821 89.16552269 79.12083859 90.75 78.6875 C95.47486249 77.31714713 99.52946545 75.2605551 103.7734375 72.79296875 C106 72 106 72 108.2890625 72.86328125 C108.85367188 73.23839844 109.41828125 73.61351562 110 74 C110 75.32 110 76.64 110 78 C96.40872997 85.25411114 85.27763871 89.32614187 69.6875 89.4375 C68.56569336 89.44773193 67.44388672 89.45796387 66.28808594 89.46850586 C59.82776126 89.39966633 54.88376157 88.70180038 49 86 C49 84.02 49 82.04 49 80 C47.948125 80.515625 46.89625 81.03125 45.8125 81.5625 C42.49489067 83.18877908 40.5255085 83.12339992 37 82 C34.7736773 80.68675142 32.71750206 79.37213686 30.625 77.875 C30.0484668 77.46612549 29.47193359 77.05725098 28.87792969 76.63598633 C13.71938307 65.68648279 2.83621225 49.47761542 -0.546875 31.015625 C-1.25968226 25.80330811 -1.14490086 20.56300966 -1.125 15.3125 C-1.12886719 14.28060547 -1.13273438 13.24871094 -1.13671875 12.18554688 C-1.13542969 11.19232422 -1.13414062 10.19910156 -1.1328125 9.17578125 C-1.13168457 8.27770752 -1.13055664 7.37963379 -1.12939453 6.4543457 C-1.00853116 4.1618184 -0.6442289 2.19658384 0 0 Z " fill="#0C232E" transform="translate(180,201)"/>
<path d="M0 0 C7.00020084 5.52348504 13.22362384 14.17102385 15 23 C15.2441572 26.39267532 15.2310946 29.78689096 15.25 33.1875 C15.270625 34.09564453 15.29125 35.00378906 15.3125 35.93945312 C15.36153173 44.50161838 13.41145894 51.30636478 8.8125 58.5625 C8.28269531 59.40941406 7.75289063 60.25632812 7.20703125 61.12890625 C6.80871094 61.74636719 6.41039062 62.36382812 6 63 C6.63421875 63.28617187 7.2684375 63.57234375 7.921875 63.8671875 C10.41561201 65.22655542 10.96432124 66.41080309 12 69 C9.69 68.67 7.38 68.34 5 68 C5 64.37 5 60.74 5 57 C3.35 57 1.7 57 0 57 C0.42152344 56.18015625 0.84304688 55.3603125 1.27734375 54.515625 C1.82519531 53.43796875 2.37304688 52.3603125 2.9375 51.25 C3.75541016 49.64898437 3.75541016 49.64898437 4.58984375 48.015625 C8.17880961 40.34060659 8.18902293 31.5439424 6.05859375 23.40234375 C1.66332052 11.40145665 -5.07801489 5.59107295 -16.27734375 -0.171875 C-25.04681972 -2.83920485 -36.43576703 -2.38316846 -44.6875 1.5 C-54.59938508 7.42498159 -60.36483933 15.09451799 -64 26 C-64.22179785 27.89212737 -64.40614015 29.78884472 -64.5625 31.6875 C-64.64628906 32.68136719 -64.73007813 33.67523438 -64.81640625 34.69921875 C-64.87699219 35.45847656 -64.93757812 36.21773437 -65 37 C-65.33 37 -65.66 37 -66 37 C-66.33 32.38 -66.66 27.76 -67 23 C-67.495 23.495 -67.495 23.495 -68 24 C-68.495 24.495 -68.495 24.495 -69 25 C-69.22513101 26.33802186 -69.39360807 27.68573023 -69.53515625 29.03515625 C-69.62216797 29.84404297 -69.70917969 30.65292969 -69.79882812 31.48632812 C-69.88583984 32.33646484 -69.97285156 33.18660156 -70.0625 34.0625 C-70.15337891 34.91650391 -70.24425781 35.77050781 -70.33789062 36.65039062 C-70.56250722 38.76651535 -70.78175227 40.88320894 -71 43 C-71.33 43 -71.66 43 -72 43 C-72.77290376 22.08865933 -72.77290376 22.08865933 -68 14 C-67.57589844 13.236875 -67.15179688 12.47375 -66.71484375 11.6875 C-60.37530887 1.23344805 -50.79752952 -5.80832447 -39.125 -9.3125 C-25.07171508 -12.21327825 -11.46403182 -8.37990291 0 0 Z " fill="#69D3A1" transform="translate(279,184)"/>
<path d="M0 0 C3.36335594 1.45745424 5.54534005 3.31117854 8.109375 5.9140625 C8.86347656 6.67460937 9.61757813 7.43515625 10.39453125 8.21875 C11.17183594 9.0128125 11.94914062 9.806875 12.75 10.625 C13.54277344 11.42679687 14.33554687 12.22859375 15.15234375 13.0546875 C17.10614493 15.03202846 19.05512103 17.01388909 21 19 C20.01 19.66 19.02 20.32 18 21 C16.68 19.68 15.36 18.36 14 17 C14 18.65 14 20.3 14 22 C14.66 22 15.32 22 16 22 C15.82374165 24.37948772 15.30280227 25.70225849 13.59765625 27.37890625 C12.09350908 28.62115486 10.54870149 29.81376056 9 31 C8.01 30.34 7.02 29.68 6 29 C9.465 27.02 9.465 27.02 13 25 C12.34 23.68 11.68 22.36 11 21 C7.05356653 22.17326401 3.44970264 23.72099405 -0.25 25.5 C-4.83324757 27.63466325 -9.11794147 28.8545649 -14.1015625 29.640625 C-16.0038829 29.81613354 -16.0038829 29.81613354 -17 31 C-19.37323378 31.10061091 -21.74963908 31.12964846 -24.125 31.125 C-26.07792969 31.12886719 -26.07792969 31.12886719 -28.0703125 31.1328125 C-35.34960434 30.8867927 -39.93462447 29.83727839 -46 26 C-45.01 25.67 -44.02 25.34 -43 25 C-43 24.34 -43 23.68 -43 23 C-37.06 23 -31.12 23 -25 23 C-25 21.02 -25 19.04 -25 17 C-27.64 17 -30.28 17 -33 17 C-32.67 16.34 -32.34 15.68 -32 15 C-32.33 14.01 -32.66 13.02 -33 12 C-31.30632307 10.30632307 -28.88645083 10.66670364 -26.5625 10.4375 C-18.47548642 9.28606759 -5.89949163 5.89949163 0 0 Z " fill="#0C202C" transform="translate(277,253)"/>
<path d="M0 0 C-0.33 2.31 -0.66 4.62 -1 7 C-2.22009766 6.7834375 -2.22009766 6.7834375 -3.46484375 6.5625 C-23.56235111 3.30711073 -42.31973012 3.92049896 -59.5859375 16.12060547 C-68.66363027 22.77172016 -74.46041067 30.287733 -80 40 C-80.99736787 41.66824312 -81.9963354 43.33553758 -83 45 C-84.98 44.67 -86.96 44.34 -89 44 C-88.49840088 39.04390123 -86.8838331 35.47977881 -84.1875 31.375 C-83.79079102 30.76962402 -83.39408203 30.16424805 -82.98535156 29.54052734 C-72.17188238 13.63616663 -56.37470084 2.85356357 -37.8125 -2.3125 C-25.12969429 -4.69338772 -12.41725377 -2.80766976 0 0 Z " fill="#8ECE7E" transform="translate(273,149)"/>
<path d="M0 0 C0.66 0.33 1.32 0.66 2 1 C2.18426713 3.03600076 2.26906224 5.08113928 2.3125 7.125 C3.02127314 18.90985516 6.21689684 30.60412784 15 39 C17.85367338 41.32921449 20.7697674 43.23496923 24 45 C24.60199219 45.3403125 25.20398438 45.680625 25.82421875 46.03125 C32.89510019 49.34428772 42.43605996 49.41705551 49.79296875 47.1328125 C51.27959213 46.45050964 52.74910451 45.72862179 54.19140625 44.95703125 C56.39990681 43.78838624 58.53118623 43.31855662 61 43 C60.505 41.02 60.505 41.02 60 39 C60.66 39 61.32 39 62 39 C62 40.65 62 42.3 62 44 C63.98 44.66 65.96 45.32 68 46 C58.16495813 54.3625125 47.93102775 57.12898453 35.27734375 56.44921875 C21.57958028 55.24638484 12.46067967 48.46904041 3.7265625 38.2734375 C-4.10571129 27.96035301 -3.50171237 17.50101524 -2.4140625 5.09375 C-2 3 -2 3 0 0 Z " fill="#3ECEC5" transform="translate(211,206)"/>
<path d="M0 0 C16.44197194 5.98686367 28.47911548 20.51332387 35.6796875 35.9375 C36.11539063 36.948125 36.55109375 37.95875 37 39 C37.41507812 39.94875 37.83015625 40.8975 38.2578125 41.875 C43.44536456 55.80520972 42.03082038 72.65772499 39 87 C36 88 36 88 33.8125 87.0625 C33.214375 86.711875 32.61625 86.36125 32 86 C32.23589844 84.14761719 32.23589844 84.14761719 32.4765625 82.2578125 C34.82801608 60.84368545 33.81316286 41.73351725 19.8984375 24.37890625 C13.48063056 16.95762778 6.58564927 11.65056002 -2 7 C-1.125 1.125 -1.125 1.125 0 0 Z " fill="#59DAB3" transform="translate(281,153)"/>
<path d="M0 0 C2.31 0.33 4.62 0.66 7 1 C6.98428955 1.75506836 6.9685791 2.51013672 6.95239258 3.28808594 C6.88926452 6.77531157 6.85076502 10.26241633 6.8125 13.75 C6.78736328 14.93722656 6.76222656 16.12445313 6.73632812 17.34765625 C6.64445914 28.55567233 8.37185512 38.41719555 14.125 48.125 C14.51751953 48.80167725 14.91003906 49.47835449 15.31445312 50.17553711 C21.89127589 61.1696876 31.11808235 70.82070256 43 76 C42.67 77.65 42.34 79.3 42 81 C39.8984375 81.75 39.8984375 81.75 37 82 C34.64279889 80.75873967 32.73490013 79.57378302 30.625 78 C30.0484668 77.58210205 29.47193359 77.1642041 28.87792969 76.73364258 C13.79198009 65.59806516 2.85139665 49.56047888 -0.546875 31.015625 C-1.25968226 25.80330811 -1.14490086 20.56300966 -1.125 15.3125 C-1.12886719 14.28060547 -1.13273438 13.24871094 -1.13671875 12.18554688 C-1.13542969 11.19232422 -1.13414062 10.19910156 -1.1328125 9.17578125 C-1.13168457 8.27770752 -1.13055664 7.37963379 -1.12939453 6.4543457 C-1.00853116 4.1618184 -0.6442289 2.19658384 0 0 Z " fill="#3FB1AC" transform="translate(180,201)"/>
<path d="M0 0 C2.78592125 1.15048229 4.62666906 2.79113234 6.859375 4.80859375 C7.65859375 5.51886719 8.4578125 6.22914063 9.28125 6.9609375 C11.109375 8.87109375 11.109375 8.87109375 11.109375 10.87109375 C11.769375 10.87109375 12.429375 10.87109375 13.109375 10.87109375 C15.75928442 12.99102129 16.35608327 14.6427006 17.109375 17.87109375 C17.769375 18.20109375 18.429375 18.53109375 19.109375 18.87109375 C19.109375 19.53109375 19.109375 20.19109375 19.109375 20.87109375 C22.83551653 19.75254789 22.83551653 19.75254789 25.109375 16.87109375 C25.92479931 18.95328424 26.73660689 21.03689136 27.546875 23.12109375 C28.22556641 24.86132812 28.22556641 24.86132812 28.91796875 26.63671875 C30.60896077 31.22734626 31.23208995 34.81896429 31.20703125 39.73046875 C31.20380859 40.84550781 31.20058594 41.96054688 31.19726562 43.109375 C31.18469727 44.84767578 31.18469727 44.84767578 31.171875 46.62109375 C31.16736328 47.79542969 31.16285156 48.96976563 31.15820312 50.1796875 C31.14642594 53.07687447 31.12997826 55.97395829 31.109375 58.87109375 C30.779375 58.87109375 30.449375 58.87109375 30.109375 58.87109375 C29.614375 51.44609375 29.614375 51.44609375 29.109375 43.87109375 C28.119375 43.87109375 27.129375 43.87109375 26.109375 43.87109375 C24.4257244 46.79291542 23.93096608 48.64807746 24.171875 51.99609375 C24.32262889 57.32568733 22.85902669 61.88250352 21.109375 66.87109375 C18.634375 67.36609375 18.634375 67.36609375 16.109375 67.87109375 C15.02881441 63.89949689 15.25121886 61.44556218 16.546875 57.55859375 C16.83433594 56.67558594 17.12179687 55.79257813 17.41796875 54.8828125 C17.64613281 54.21894531 17.87429688 53.55507812 18.109375 52.87109375 C18.769375 52.87109375 19.429375 52.87109375 20.109375 52.87109375 C20.44385759 50.03892575 20.44385759 50.03892575 20.109375 46.87109375 C18.79737096 45.516767 17.46306096 44.18375893 16.109375 42.87109375 C14.80863921 38.50433789 15.08036499 35.92911377 17.109375 31.87109375 C16.119375 31.54109375 15.129375 31.21109375 14.109375 30.87109375 C13.484375 29.12890625 13.484375 29.12890625 13.109375 26.99609375 C12.37623678 23.60082251 11.7344182 22.19324735 9.109375 19.87109375 C8.573125 18.79859375 8.036875 17.72609375 7.484375 16.62109375 C5.23121161 12.44169657 1.89492158 10.19375172 -1.96484375 7.546875 C-4.11431707 5.67644081 -4.53338721 4.65028268 -4.890625 1.87109375 C-1.890625 -0.12890625 -1.890625 -0.12890625 0 0 Z " fill="#0D282C" transform="translate(283.890625,171.12890625)"/>
<path d="M0 0 C3.42949055 2.01698455 6.20893285 4.4178657 8 8 C8.42526125 12.62062705 8.56310381 16.71290557 6.6875 21 C5 23 5 23 2 25 C3.98 25.33 5.96 25.66 8 26 C8.625 27.875 8.625 27.875 9 30 C7 32 7 32 5.125 32.23046875 C4.42375 32.21628906 3.7225 32.20210938 3 32.1875 C2.29875 32.18105469 1.5975 32.17460937 0.875 32.16796875 C-1 32 -1 32 -3 31 C-4.37342831 30.9310528 -5.75002102 30.91532292 -7.125 30.9375 C-8.40375 30.958125 -9.6825 30.97875 -11 31 C-11 28 -11 28 -10 26 C-10.94875 25.278125 -11.8975 24.55625 -12.875 23.8125 C-16.85029341 20.46537796 -17.81107487 17.73181367 -18.375 12.5625 C-17.85247787 7.5985398 -15.86142625 4.65591847 -12.16015625 1.36328125 C-8.32088381 -1.05969539 -4.36542203 -0.85031994 0 0 Z " fill="#7AD293" transform="translate(194,325)"/>
<path d="M0 0 C0.56460938 0.37511719 1.12921875 0.75023437 1.7109375 1.13671875 C1.7109375 2.45671875 1.7109375 3.77671875 1.7109375 5.13671875 C-11.88033253 12.39082989 -23.01142379 16.46286062 -38.6015625 16.57421875 C-39.72336914 16.58445068 -40.84517578 16.59468262 -42.00097656 16.60522461 C-48.46130124 16.53638508 -53.40530093 15.83851913 -59.2890625 13.13671875 C-58.9590625 11.15671875 -58.6290625 9.17671875 -58.2890625 7.13671875 C-57.38027344 7.28109375 -56.47148437 7.42546875 -55.53515625 7.57421875 C-38.73537265 10.14830864 -38.73537265 10.14830864 -22.2890625 7.13671875 C-20.70683758 6.69522696 -19.12353981 6.25755734 -17.5390625 5.82421875 C-12.81420001 4.45386588 -8.75959705 2.39727385 -4.515625 -0.0703125 C-2.2890625 -0.86328125 -2.2890625 -0.86328125 0 0 Z " fill="#34B2B9" transform="translate(288.2890625,273.86328125)"/>
<path d="M0 0 C3.75926017 3.11979839 7.33752046 6.26910169 10.71875 9.796875 C11.34136719 10.44527344 11.96398437 11.09367187 12.60546875 11.76171875 C13.87631473 13.09545196 15.13928197 14.43673383 16.39453125 15.78515625 C20.47212122 19.99782167 23.25414537 21.82967869 29 23 C31.4375 24.625 31.4375 24.625 33 27 C33.79582586 30.98733367 33.59796696 33.96005747 31.5625 37.5 C27.75227753 39.73037413 24.30116902 39.90300786 20 39 C16.95362408 36.4222973 16.13761851 34.67902786 15.34765625 30.78125 C13.99359319 25.85861942 10.50695284 22.9607133 6.875 19.5625 C6.21628906 18.92634766 5.55757813 18.29019531 4.87890625 17.63476562 C3.26341745 16.07780903 1.63744692 14.53379085 0 13 C0.66 12.67 1.32 12.34 2 12 C4.31 13.98 6.62 15.96 9 18 C9.66 17.67 10.32 17.34 11 17 C10.67 15.02 10.34 13.04 10 11 C9.01 10.67 8.02 10.34 7 10 C7 9.34 7 8.68 7 8 C6.01 8 5.02 8 4 8 C3.67 7.34 3.34 6.68 3 6 C0.97536745 5.34786708 0.97536745 5.34786708 -1 5 C-0.67 3.35 -0.34 1.7 0 0 Z " fill="#2DDCE0" transform="translate(291,253)"/>
<path d="M0 0 C4.12175661 0.15553799 6.32445009 0.39373726 9.4375 3.1875 C11.30215998 6.54388796 11.6303761 8.2177434 11 12 C9.5625 14.875 9.5625 14.875 7 17 C3.95457539 17.41409388 1.05290263 17.29354833 -2 17 C-2 19.64 -2 22.28 -2 25 C-3.98 25 -5.96 25 -8 25 C-8 17.08 -8 9.16 -8 1 C-5.69 1 -3.38 1 -1 1 C-0.67 0.67 -0.34 0.34 0 0 Z " fill="#F2F3F4" transform="translate(271,334)"/>
<path d="M0 0 C2.31 0 4.62 0 7 0 C8.34370959 4.71038877 8.22294423 9.3208442 8.25 14.1875 C8.270625 15.09564453 8.29125 16.00378906 8.3125 16.93945312 C8.36153173 25.50161838 6.41145894 32.30636478 1.8125 39.5625 C1.28269531 40.40941406 0.75289063 41.25632813 0.20703125 42.12890625 C-0.39044922 43.05509766 -0.39044922 43.05509766 -1 44 C-0.04867188 44.42925781 -0.04867188 44.42925781 0.921875 44.8671875 C3.41561201 46.22655542 3.96432124 47.41080309 5 50 C2.69 49.67 0.38 49.34 -2 49 C-2 45.37 -2 41.74 -2 38 C-3.65 38 -5.3 38 -7 38 C-6.57847656 37.18015625 -6.15695312 36.3603125 -5.72265625 35.515625 C-5.17480469 34.43796875 -4.62695312 33.3603125 -4.0625 32.25 C-3.51722656 31.18265625 -2.97195313 30.1153125 -2.41015625 29.015625 C-0.42620635 24.77293991 0.12482766 21.47035799 0.09765625 16.796875 C0.09443359 15.8171875 0.09121094 14.8375 0.08789062 13.828125 C0.07951172 12.81234375 0.07113281 11.7965625 0.0625 10.75 C0.05798828 9.71875 0.05347656 8.6875 0.04882812 7.625 C0.03706088 5.08327427 0.02062011 2.54166681 0 0 Z " fill="#50D8B8" transform="translate(286,203)"/>
<path d="M0 0 C13.25293273 4.82566822 25.71802371 16.43604741 32 29 C32.25 32.4375 32.25 32.4375 32 36 C30.484375 37.72265625 30.484375 37.72265625 29 39 C28.72027344 38.45472656 28.44054687 37.90945312 28.15234375 37.34765625 C21.16123463 24.19717768 11.56599963 13.52085489 -2 7 C-1.125 1.125 -1.125 1.125 0 0 Z " fill="#92CF7F" transform="translate(281,153)"/>
<path d="M0 0 C2.49875043 2.97927936 4.67395254 6.03393324 6.75 9.3125 C12.87118376 18.54797023 21.04872694 25.20366569 31 30 C30.67 31.65 30.34 33.3 30 35 C27.8984375 35.75 27.8984375 35.75 25 36 C22.64279889 34.75873967 20.73490013 33.57378302 18.625 32 C18.0484668 31.58210205 17.47193359 31.1642041 16.87792969 30.73364258 C8.40466672 24.47916883 -1.59078132 15.22765604 -5 5 C-4.34 5 -3.68 5 -3 5 C-3 5.66 -3 6.32 -3 7 C-2.01 6.67 -1.02 6.34 0 6 C0 4.02 0 2.04 0 0 Z " fill="#3BABAC" transform="translate(192,247)"/>
<path d="M0 0 C0.99 0.33 1.98 0.66 3 1 C4.65 1 6.3 1 8 1 C8 6.28 8 11.56 8 17 C4.41125 17.1546875 4.41125 17.1546875 0.75 17.3125 C0.00331055 17.35802002 -0.74337891 17.40354004 -1.51269531 17.45043945 C-5.26385899 17.52863073 -6.70427293 17.28112908 -9.453125 14.66796875 C-11.35111655 11.39441261 -11.62125796 9.72754774 -11 6 C-7.74784058 1.12176086 -5.80594664 -0.28321691 0 0 Z " fill="#46D3C1" transform="translate(305,334)"/>
<path d="M0 0 C0.99 0.33 1.98 0.66 3 1 C4.65 1 6.3 1 8 1 C8 6.28 8 11.56 8 17 C4.41125 17.1546875 4.41125 17.1546875 0.75 17.3125 C0.00331055 17.35802002 -0.74337891 17.40354004 -1.51269531 17.45043945 C-5.26385899 17.52863073 -6.70427293 17.28112908 -9.453125 14.66796875 C-11.35111655 11.39441261 -11.62125796 9.72754774 -11 6 C-7.74784058 1.12176086 -5.80594664 -0.28321691 0 0 Z " fill="#F5F5F6" transform="translate(251,334)"/>
<path d="M0 0 C4 1 4 1 6 4 C5.525625 4.7425 5.05125 5.485 4.5625 6.25 C3.22130673 8.61050015 2.487688 10.36648477 2 13 C1.34 13 0.68 13 0 13 C-0.84592214 21.65720313 -1.44944191 30.31992454 -2 39 C-4.31 39 -6.62 39 -9 39 C-9.02913821 35.4375173 -9.04684529 31.87506546 -9.0625 28.3125 C-9.07087891 27.30509766 -9.07925781 26.29769531 -9.08789062 25.25976562 C-9.09272461 23.79506836 -9.09272461 23.79506836 -9.09765625 22.30078125 C-9.10289307 21.40528564 -9.10812988 20.50979004 -9.11352539 19.5871582 C-8.99840198 16.96358241 -8.58234285 14.55706947 -8 12 C-7.34 12 -6.68 12 -6 12 C-4.02 8.04 -2.04 4.08 0 0 Z " fill="#08252F" transform="translate(201,188)"/>
<path d="M0 0 C2.78592125 1.15048229 4.62666906 2.79113234 6.859375 4.80859375 C7.65859375 5.51886719 8.4578125 6.22914063 9.28125 6.9609375 C11.109375 8.87109375 11.109375 8.87109375 11.109375 10.87109375 C11.769375 10.87109375 12.429375 10.87109375 13.109375 10.87109375 C15.87742929 13.08843567 16.97249841 15.47713786 18.234375 18.74609375 C18.56695312 19.58914062 18.89953125 20.4321875 19.2421875 21.30078125 C20.09014944 23.81410988 20.65101483 26.26124706 21.109375 28.87109375 C19.129375 29.20109375 17.149375 29.53109375 15.109375 29.87109375 C14.614375 28.77796875 14.119375 27.68484375 13.609375 26.55859375 C10.099704 19.5888584 5.76119549 12.32647408 -0.828125 7.93359375 C-3.890625 5.87109375 -3.890625 5.87109375 -4.58203125 3.7421875 C-4.68386719 3.12472656 -4.78570312 2.50726563 -4.890625 1.87109375 C-1.890625 -0.12890625 -1.890625 -0.12890625 0 0 Z " fill="#183A42" transform="translate(283.890625,171.12890625)"/>
<path d="M0 0 C4.05141339 0.38955898 5.50728153 1.33469137 8.25 4.3125 C9.0625 7.5625 9.0625 7.5625 9.25 10.3125 C3.805 10.8075 3.805 10.8075 -1.75 11.3125 C2.85532389 12.76564664 2.85532389 12.76564664 5.25 11.3125 C6.24 11.9725 7.23 12.6325 8.25 13.3125 C7.25 16.3125 7.25 16.3125 5.25 17.3125 C0.44265548 17.97362793 -2.75398478 18.0036126 -6.8125 15.1875 C-8.75 12.3125 -8.75 12.3125 -9.375 9.3125 C-8.55352072 5.36939946 -6.76509365 3.88636043 -3.75 1.3125 C-2.75 0.3125 -2.75 0.3125 0 0 Z " fill="#E1E3E4" transform="translate(229.75,333.6875)"/>
<path d="M0 0 C0.96198821 2.76571611 1.36877071 4.14714882 1 7 C-0.69929228 9.62576812 -2.65950577 11.86975219 -4.71875 14.22265625 C-8.44699008 18.76166087 -11.1772927 23.8662011 -14 29 C-15.98 28.67 -17.96 28.34 -20 28 C-19.51202359 22.90335746 -17.72550673 19.31652843 -14.9375 15.125 C-14.53845459 14.5151123 -14.13940918 13.90522461 -13.72827148 13.27685547 C-4.80595675 0 -4.80595675 0 0 0 Z " fill="#67D69F" transform="translate(204,165)"/>
<path d="M0 0 C1.98 0 3.96 0 6 0 C6 6.6 6 13.2 6 20 C8.97 20 11.94 20 15 20 C15 21.98 15 23.96 15 26 C10.05 26 5.1 26 0 26 C0 17.42 0 8.84 0 0 Z " fill="#EBECED" transform="translate(205,325)"/>
<path d="M0 0 C3.83326795 -0.05859888 7.66641888 -0.09379643 11.5 -0.125 C12.57765625 -0.14175781 13.6553125 -0.15851563 14.765625 -0.17578125 C20.88824592 -0.2131143 26.14105614 0.19396633 32 2 C31.67 4.31 31.34 6.62 31 9 C30.20980469 8.86722656 29.41960937 8.73445312 28.60546875 8.59765625 C18.41520778 7.00215253 8.29630508 6.4171211 -2 6 C-1.34 4.02 -0.68 2.04 0 0 Z " fill="#9FDF82" transform="translate(241,147)"/>
<path d="M0 0 C0.53625 0.38542969 1.0725 0.77085937 1.625 1.16796875 C1.625 2.48796875 1.625 3.80796875 1.625 5.16796875 C-16.59071282 14.89029823 -30.68596842 16.77026952 -51.375 16.16796875 C-51.375 15.83796875 -51.375 15.50796875 -51.375 15.16796875 C-50.29400024 15.13823975 -50.29400024 15.13823975 -49.19116211 15.10791016 C-45.89793328 15.01213215 -42.60529332 14.90266758 -39.3125 14.79296875 C-38.17876953 14.76203125 -37.04503906 14.73109375 -35.87695312 14.69921875 C-30.04592404 14.49521773 -24.8848614 14.13520519 -19.375 12.16796875 C-19.375 11.50796875 -19.375 10.84796875 -19.375 10.16796875 C-22.015 9.83796875 -24.655 9.50796875 -27.375 9.16796875 C-27.375 8.83796875 -27.375 8.50796875 -27.375 8.16796875 C-26.30185547 7.94753906 -26.30185547 7.94753906 -25.20703125 7.72265625 C-17.95259428 6.08970407 -11.77034386 3.64052085 -5.1875 0.1796875 C-2.375 -0.83203125 -2.375 -0.83203125 0 0 Z " fill="#399FA5" transform="translate(288.375,273.83203125)"/>
<path d="M0 0 C6.27808989 7.74297753 6.27808989 7.74297753 6 14 C7.32 14.33 8.64 14.66 10 15 C9.67 15.70125 9.34 16.4025 9 17.125 C7.90955438 20.26003116 7.84677357 22.70563182 8 26 C7.34 25.67 6.68 25.34 6 25 C5.67 26.98 5.34 28.96 5 31 C4.67 31 4.34 31 4 31 C4 34.96 4 38.92 4 43 C2.68 43.66 1.36 44.32 0 45 C0.15855469 44.38511719 0.31710937 43.77023438 0.48046875 43.13671875 C2.36403243 31.764526 2.47524646 19.29053017 -3 9 C-3 8.34 -3 7.68 -3 7 C-2.34 7 -1.68 7 -1 7 C-0.67 4.69 -0.34 2.38 0 0 Z " fill="#0C2128" transform="translate(292,188)"/>
<path d="M0 0 C0.64742613 5.95632043 -0.96374035 9.54600794 -3.80859375 14.765625 C-5.75519923 18.41630807 -6.22701222 21.61371986 -6.5625 25.6875 C-6.64628906 26.68136719 -6.73007813 27.67523438 -6.81640625 28.69921875 C-6.87699219 29.45847656 -6.93757812 30.21773437 -7 31 C-7.33 31 -7.66 31 -8 31 C-8.33 26.38 -8.66 21.76 -9 17 C-9.33 17.33 -9.66 17.66 -10 18 C-10.33 18.33 -10.66 18.66 -11 19 C-11.22513101 20.33802186 -11.39360807 21.68573023 -11.53515625 23.03515625 C-11.62216797 23.84404297 -11.70917969 24.65292969 -11.79882812 25.48632812 C-11.88583984 26.33646484 -11.97285156 27.18660156 -12.0625 28.0625 C-12.15337891 28.91650391 -12.24425781 29.77050781 -12.33789062 30.65039062 C-12.56250722 32.76651535 -12.78175227 34.88320894 -13 37 C-13.33 37 -13.66 37 -14 37 C-14.77054754 16.15240829 -14.77054754 16.15240829 -10 8 C-9.66484375 7.38769531 -9.3296875 6.77539062 -8.984375 6.14453125 C-6.75143388 2.41410183 -4.49202914 0 0 0 Z " fill="#51CEB2" transform="translate(221,190)"/>
<path d="M0 0 C4.17878589 2.82350398 4.77630547 6.28003537 6 11 C6.66 11.66 7.32 12.32 8 13 C8 13.99 8 14.98 8 16 C7.34 16 6.68 16 6 16 C6 15.34 6 14.68 6 14 C4.50146484 13.92652344 4.50146484 13.92652344 2.97265625 13.8515625 C1.03712891 13.73941406 1.03712891 13.73941406 -0.9375 13.625 C-2.22527344 13.55539063 -3.51304687 13.48578125 -4.83984375 13.4140625 C-6.40412109 13.20910156 -6.40412109 13.20910156 -8 13 C-9.26237731 10.47524538 -9.09856404 8.68799534 -9.0625 5.875 C-9.05347656 4.96492187 -9.04445312 4.05484375 -9.03515625 3.1171875 C-9.02355469 2.41851562 -9.01195312 1.71984375 -9 1 C-5.90826248 -0.54586876 -3.40570448 -0.29359521 0 0 Z " fill="#25F8DA" transform="translate(259,218)"/>
<path d="M0 0 C5.25174926 4.38442526 10.13222473 9.00842093 14.9375 13.875 C15.62134766 14.56335938 16.30519531 15.25171875 17.00976562 15.9609375 C18.67551464 17.63833511 20.3388622 19.31803791 22 21 C18.98968256 21.93423645 18.13349732 22.04449911 15 21 C15.34227572 23.97065509 15.34227572 23.97065509 16 27 C16.66 27.33 17.32 27.66 18 28 C17.67 29.98 17.34 31.96 17 34 C16.67 34 16.34 34 16 34 C15.81695312 32.99839844 15.63390625 31.99679687 15.4453125 30.96484375 C14.01453108 25.95710876 10.58678725 23.03540985 6.875 19.5625 C6.21628906 18.92634766 5.55757813 18.29019531 4.87890625 17.63476562 C3.26341745 16.07780903 1.63744692 14.53379085 0 13 C0.66 12.67 1.32 12.34 2 12 C4.31 13.98 6.62 15.96 9 18 C9.66 17.67 10.32 17.34 11 17 C10.67 15.02 10.34 13.04 10 11 C9.01 10.67 8.02 10.34 7 10 C7 9.34 7 8.68 7 8 C6.01 8 5.02 8 4 8 C3.67 7.34 3.34 6.68 3 6 C0.97536745 5.34786708 0.97536745 5.34786708 -1 5 C-0.67 3.35 -0.34 1.7 0 0 Z " fill="#3AD2CD" transform="translate(291,253)"/>
<path d="M0 0 C2 2 2 2 2.265625 4.3125 C2.26046875 5.199375 2.2553125 6.08625 2.25 7 C2.25515625 7.886875 2.2603125 8.77375 2.265625 9.6875 C2 12 2 12 0 14 C-5.95169082 14.5410628 -5.95169082 14.5410628 -8.9375 13 C-10.65886567 9.75978228 -10.52960415 6.58042244 -10 3 C-7.8297183 -1.08523614 -4.19706062 -0.38155097 0 0 Z " fill="#0E1C26" transform="translate(193,331)"/>
<path d="M0 0 C1.32 0 2.64 0 4 0 C4.33 12.54 4.66 25.08 5 38 C-0.08800573 32.91199427 -0.11479749 28.12786812 -0.1953125 21.19140625 C-0.18210189 18.64836381 -0.15837421 16.10535775 -0.125 13.5625 C-0.11597656 12.25861328 -0.10695312 10.95472656 -0.09765625 9.61132812 C-0.07418397 6.40736168 -0.04134727 3.20377736 0 0 Z " fill="#45D7BA" transform="translate(181,204)"/>
<path d="M0 0 C0 0.99 0 1.98 0 3 C-0.56847656 3.27972656 -1.13695312 3.55945313 -1.72265625 3.84765625 C-6.86972275 6.5200063 -10.75590364 9.37620094 -14.6875 13.64453125 C-15.3371875 14.31548828 -15.3371875 14.31548828 -16 15 C-16.33 15 -16.66 15 -17 15 C-17 13.02 -17 11.04 -17 9 C-18.65 9.33 -20.3 9.66 -22 10 C-21.06725891 8.87105124 -20.12859878 7.74699124 -19.1875 6.625 C-18.66542969 5.99851563 -18.14335937 5.37203125 -17.60546875 4.7265625 C-14.98006838 1.90313923 -12.12624153 0.52405262 -8.5625 -0.75 C-7.80066406 -1.03359375 -7.03882813 -1.3171875 -6.25390625 -1.609375 C-3.48236249 -2.08971187 -2.33921011 -1.47066513 0 0 Z " fill="#61DCA9" transform="translate(238,181)"/>
<path d="M0 0 C2.97 0.495 2.97 0.495 6 1 C5.67 7.93 5.34 14.86 5 22 C3.02 22 1.04 22 -1 22 C-1.02903577 18.89585298 -1.0468107 15.79174091 -1.0625 12.6875 C-1.07087891 11.80642578 -1.07925781 10.92535156 -1.08789062 10.01757812 C-1.09111328 9.17001953 -1.09433594 8.32246094 -1.09765625 7.44921875 C-1.10289307 6.66893311 -1.10812988 5.88864746 -1.11352539 5.0847168 C-1 3 -1 3 0 0 Z " fill="#1A575D" transform="translate(194,204)"/>
<path d="M0 0 C4.18911454 0.69818576 7.6106895 1.40960509 10.484375 4.69921875 C13.37809949 9.24522419 14.87145919 12.44444769 14 18 C12.46875 19.69921875 12.46875 19.69921875 11 21 C10.72027344 20.45472656 10.44054687 19.90945312 10.15234375 19.34765625 C7.33374314 14.04578693 4.1654897 9.50699425 0.2578125 4.9453125 C-0.15726562 4.30335938 -0.57234375 3.66140625 -1 3 C-0.67 2.01 -0.34 1.02 0 0 Z " fill="#7CD498" transform="translate(299,171)"/>
<path d="M0 0 C0 0.66 0 1.32 0 2 C1.98 2 3.96 2 6 2 C3.45651078 4.74045977 0.5968717 6.82612177 -2.4375 9 C-5.64720228 11.30574531 -8.84814132 13.61561518 -12 16 C-12.66 13.36 -13.32 10.72 -14 8 C-12.5433323 6.85204994 -11.08461063 5.70670581 -9.625 4.5625 C-8.40683594 3.60537109 -8.40683594 3.60537109 -7.1640625 2.62890625 C-4.40323979 0.55081406 -3.5085202 0 0 0 Z " fill="#84D38E" transform="translate(217,156)"/>
<path d="M0 0 C0 0.66 0 1.32 0 2 C0.66 2 1.32 2 2 2 C2 4.31 2 6.62 2 9 C4.31 9.33 6.62 9.66 9 10 C8.67 11.65 8.34 13.3 8 15 C3.44131062 14.4636836 0.73072364 12.58866538 -3 10 C-4.98507948 8.97069953 -6.98114251 7.96136071 -9 7 C-9 6.34 -9 5.68 -9 5 C-8.34 5 -7.68 5 -7 5 C-7.33 3.68 -7.66 2.36 -8 1 C-5.29120665 -0.35439668 -2.99066732 -0.06501451 0 0 Z " fill="#2CE9D6" transform="translate(282,243)"/>
<path d="M0 0 C1.53515625 1.203125 1.53515625 1.203125 3 3 C2.98890455 9.34659717 0.39319957 14.79709399 -3 20 C-2.38125 20.2475 -1.7625 20.495 -1.125 20.75 C1.35068687 22.20628639 1.95125002 23.37812506 3 26 C0.69 25.67 -1.62 25.34 -4 25 C-4 21.37 -4 17.74 -4 14 C-5.65 14 -7.3 14 -9 14 C-8.21718695 12.66144944 -7.42348123 11.32926356 -6.625 10 C-6.18414062 9.2575 -5.74328125 8.515 -5.2890625 7.75 C-4.86367188 7.1725 -4.43828125 6.595 -4 6 C-3.34 6 -2.68 6 -2 6 C-1.34 4.02 -0.68 2.04 0 0 Z " fill="#41C9B8" transform="translate(288,227)"/>
<path d="M0 0 C5.94 0.66 11.88 1.32 18 2 C18 3.98 18 5.96 18 8 C10.68889006 8.3689719 4.78743178 7.81552726 -2 5 C-1.34 3.35 -0.68 1.7 0 0 Z " fill="#3296A0" transform="translate(234,268)"/>
<path d="M0 0 C0.66 0.33 1.32 0.66 2 1 C3.22761278 9.22268934 3.15245183 17.69984476 3 26 C2.34 26.33 1.68 26.66 1 27 C1 26.34 1 25.68 1 25 C0.34 25 -0.32 25 -1 25 C-4.91280513 19.1307923 -3.29100357 9.74732052 -2 3 C-1.34 2.01 -0.68 1.02 0 0 Z " fill="#42DFC2" transform="translate(211,206)"/>
<path d="M0 0 C0 2.31 0 4.62 0 7 C-1.06541016 7.30744141 -1.06541016 7.30744141 -2.15234375 7.62109375 C-3.53099609 8.02521484 -3.53099609 8.02521484 -4.9375 8.4375 C-6.31228516 8.83775391 -6.31228516 8.83775391 -7.71484375 9.24609375 C-9.9402493 9.79026051 -9.9402493 9.79026051 -11 11 C-12.66617115 11.04063832 -14.33388095 11.042721 -16 11 C-16.33 9.35 -16.66 7.7 -17 6 C-14.921188 4.99063464 -12.8367638 3.99282154 -10.75 3 C-9.58984375 2.443125 -8.4296875 1.88625 -7.234375 1.3125 C-4 0 -4 0 0 0 Z " fill="#4D7D5A" transform="translate(238,162)"/>
<path d="M0 0 C3.35496601 3.74788996 4.63658935 8.06280338 6.1875 12.75 C6.46013672 13.5234375 6.73277344 14.296875 7.01367188 15.09375 C8.7457144 20.26817279 9.28008295 24.54771862 9 30 C6.72525723 26.58788584 6.43370356 24.3431471 5.875 20.3125 C5.70742188 19.13300781 5.53984375 17.95351562 5.3671875 16.73828125 C5.24601562 15.83464844 5.12484375 14.93101562 5 14 C4.01 14 3.02 14 2 14 C2 16.64 2 19.28 2 22 C1.31379969 20.67661368 0.65213539 19.34050052 0 18 C-0.391875 17.236875 -0.78375 16.47375 -1.1875 15.6875 C-2.25995109 12.14016176 -1.69800513 9.61693565 -1 6 C-0.814375 4.865625 -0.62875 3.73125 -0.4375 2.5625 C-0.293125 1.716875 -0.14875 0.87125 0 0 Z " fill="#66CE9B" transform="translate(313,183)"/>
<path d="M0 0 C5.61 0 11.22 0 17 0 C16.67 1.98 16.34 3.96 16 6 C10.72 6 5.44 6 0 6 C0 4.02 0 2.04 0 0 Z " fill="#2C534D" transform="translate(244,161)"/>
<path d="M0 0 C0.639375 0.391875 1.27875 0.78375 1.9375 1.1875 C5.91343057 3.54060176 9.95412729 5.76992201 14 8 C13.67 9.65 13.34 11.3 13 13 C9.887486 13.96747771 8.51983845 14.25702664 5.54296875 12.78515625 C4.76566406 12.21667969 3.98835937 11.64820313 3.1875 11.0625 C2.39730469 10.49660156 1.60710937 9.93070312 0.79296875 9.34765625 C0.20128906 8.90292969 -0.39039063 8.45820313 -1 8 C-0.01 7.67 0.98 7.34 2 7 C2 5.35 2 3.7 2 2 C1.34 2 0.68 2 0 2 C0 1.34 0 0.68 0 0 Z " fill="#35A6AE" transform="translate(209,269)"/>
<path d="M0 0 C2.04296875 2.40625 2.04296875 2.40625 4.1875 5.5 C5.26064453 7.03140625 5.26064453 7.03140625 6.35546875 8.59375 C6.89816406 9.3878125 7.44085938 10.181875 8 11 C7.34 12.32 6.68 13.64 6 15 C1.08307367 13.84307616 -0.96232947 10.91389093 -3.86328125 7.0703125 C-5 5 -5 5 -5 1 C-3 0 -3 0 0 0 Z " fill="#389DA1" transform="translate(208,246)"/>
<path d="M0 0 C1.98 0 3.96 0 6 0 C5.63495936 5.66442374 4.9445679 10.00703705 2 15 C0.35 14.67 -1.3 14.34 -3 14 C-2.40380045 9.13103697 -1.43023178 4.67209049 0 0 Z " fill="#47C6B0" transform="translate(302,224)"/>
<path d="M0 0 C0 0.33 0 0.66 0 1 C-8.415 1.495 -8.415 1.495 -17 2 C-17.33 3.32 -17.66 4.64 -18 6 C-21.34252724 6.07427838 -23.8035914 6.06546953 -27 5 C-27.9590625 5.495 -27.9590625 5.495 -28.9375 6 C-31.4723486 7.2290175 -32.38161568 6.7871552 -35 6 C-23.47315089 -0.18859522 -13.12930341 -3.00029785 0 0 Z " fill="#62C59D" transform="translate(261,175)"/>
<path d="M0 0 C4.6586011 3.34203992 5.60043018 6.60165927 7 12 C8.47761659 13.90170054 8.47761659 13.90170054 10 15 C9.01 15.495 9.01 15.495 8 16 C3.07692308 11.69230769 3.07692308 11.69230769 2.6875 8.1875 C2.8421875 7.1046875 2.8421875 7.1046875 3 6 C2.01 5.67 1.02 5.34 0 5 C-0.33 4.34 -0.66 3.68 -1 3 C-3.97 3 -6.94 3 -10 3 C-10 6.3 -10 9.6 -10 13 C-9.34 13.33 -8.68 13.66 -8 14 C-8.99 14 -9.98 14 -11 14 C-12.56941198 12.43058802 -12.2449847 10.85865006 -12.3125 8.6875 C-12.2571827 5.52938534 -12.12674203 4.21651763 -10.5 1.4375 C-6.99943282 -0.57532613 -3.87714456 -0.87871666 0 0 Z " fill="#42D7C5" transform="translate(260,216)"/>
<path d="M0 0 C3.40136289 1.37912403 4.69605565 2.62611859 6.25 5.9375 C6.58515625 6.62714844 6.9203125 7.31679687 7.265625 8.02734375 C8 10 8 10 8 13 C6.02 13.33 4.04 13.66 2 14 C1.3490741 12.75264433 0.70448331 11.50198168 0.0625 10.25 C-0.29714844 9.55390625 -0.65679687 8.8578125 -1.02734375 8.140625 C-1.95558182 6.09775567 -2.53166578 4.18884624 -3 2 C-2.01 1.34 -1.02 0.68 0 0 Z " fill="#69C9A0" transform="translate(297,187)"/>
<path d="M0 0 C1.65 0 3.3 0 5 0 C5 5.28 5 10.56 5 16 C3.35 16 1.7 16 0 16 C0 10.72 0 5.44 0 0 Z " fill="#49DCC9" transform="translate(317,335)"/>
<path d="M0 0 C0.74886475 0.00523682 1.49772949 0.01047363 2.26928711 0.01586914 C3.07817383 0.0190918 3.88706055 0.02231445 4.72045898 0.02563477 C5.5705957 0.03401367 6.42073242 0.04239258 7.29663086 0.05102539 C8.15063477 0.05553711 9.00463867 0.06004883 9.88452148 0.06469727 C12.00108749 0.07652166 14.11761771 0.0944577 16.23413086 0.11352539 C16.89413086 1.43352539 17.55413086 2.75352539 18.23413086 4.11352539 C11.30413086 4.11352539 4.37413086 4.11352539 -2.76586914 4.11352539 C-2.76586914 0.17781407 -2.76586914 0.17781407 0 0 Z " fill="#64E5A5" transform="translate(245.765869140625,175.886474609375)"/>
<path d="M0 0 C2.97 0.495 2.97 0.495 6 1 C5.46884894 5.51478398 3.63379708 8.34666857 1 12 C-1.38691438 11.07603314 -2.71023043 10.50709674 -4 8.25 C-4 4.74078473 -2.04766433 2.73021911 0 0 Z " fill="#42BCB4" transform="translate(309,247)"/>
<path d="M0 0 C2.25245881 2.68841859 3.88213958 4.64641875 5 8 C4.76020354 9.5758053 4.51581408 11.15103048 4.25 12.72265625 C3.93371606 15.60380525 4.00789502 18.41502347 4.0625 21.3125 C4.10862519 27.01884527 3.79313387 32.5431173 2 38 C1.34 38.66 0.68 39.32 0 40 C0.0721875 39.46117187 0.144375 38.92234375 0.21875 38.3671875 C0.99443226 31.49378083 1.11127599 24.6588943 1.125 17.75 C1.12951172 16.80366699 1.13402344 15.85733398 1.13867188 14.88232422 C1.12796096 9.81338593 0.8693779 4.99547301 0 0 Z " fill="#103A38" transform="translate(320,198)"/>
<path d="M0 0 C0.33 1.32 0.66 2.64 1 4 C3.64 4 6.28 4 9 4 C9 4.33 9 4.66 9 5 C8.10796875 5.26554688 7.2159375 5.53109375 6.296875 5.8046875 C5.12640625 6.15789062 3.9559375 6.51109375 2.75 6.875 C1.00976562 7.39707031 1.00976562 7.39707031 -0.765625 7.9296875 C-3.35127072 8.78532389 -5.62286874 9.6937546 -8 11 C-8.99 10.34 -9.98 9.68 -11 9 C-9.02 8.01 -7.04 7.02 -5 6 C-8.97754128 5.26665571 -8.97754128 5.26665571 -13 5 C-13 4.34 -13 3.68 -13 3 C-11.58603098 2.49242138 -10.16868271 1.99425075 -8.75 1.5 C-7.96109375 1.2215625 -7.1721875 0.943125 -6.359375 0.65625 C-4 0 -4 0 0 0 Z " fill="#0F282A" transform="translate(235,170)"/>
<path d="M0 0 C5.61 0 11.22 0 17 0 C17.33 0.66 17.66 1.32 18 2 C17 4 17 4 14.375 5.1875 C8.7867059 6.53283006 4.15610925 5.34368602 -1 3 C-0.67 2.01 -0.34 1.02 0 0 Z " fill="#34D4CB" transform="translate(243,256)"/>
<path d="M0 0 C2.31 0.33 4.62 0.66 7 1 C6.67 3.64 6.34 6.28 6 9 C5.67 9 5.34 9 5 9 C5 7.02 5 5.04 5 3 C3.68 3 2.36 3 1 3 C1 11.58 1 20.16 1 29 C-1 27 -1 27 -1.24291992 24.72509766 C-1.23881104 23.79745605 -1.23470215 22.86981445 -1.23046875 21.9140625 C-1.22853516 20.90085938 -1.22660156 19.88765625 -1.22460938 18.84375 C-1.21236328 17.7815625 -1.20011719 16.719375 -1.1875 15.625 C-1.18685547 14.57054687 -1.18621094 13.51609375 -1.18554688 12.4296875 C-1.13665083 3.86744738 -1.13665083 3.86744738 0 0 Z " fill="#4EB8A8" transform="translate(180,201)"/>
<path d="M0 0 C-0.33 2.31 -0.66 4.62 -1 7 C-5.62 6.34 -10.24 5.68 -15 5 C-14.01 4.67 -13.02 4.34 -12 4 C-11.835 3.34 -11.67 2.68 -11.5 2 C-11.335 1.34 -11.17 0.68 -11 0 C-6.94952424 -1.35015859 -4.2079832 -0.62084998 0 0 Z " fill="#98D67F" transform="translate(273,149)"/>
<path d="M0 0 C0.33 0 0.66 0 1 0 C1.33 7.92 1.66 15.84 2 24 C2.66 24.33 3.32 24.66 4 25 C4.33 23.68 4.66 22.36 5 21 C6.31223496 24.93670488 5.24296256 27.12488144 4 31 C2.02 30.34 0.04 29.68 -2 29 C-1.84660156 27.73285156 -1.69320313 26.46570313 -1.53515625 25.16015625 C-0.95360023 19.92615204 -0.67287756 14.69683801 -0.4375 9.4375 C-0.39431641 8.52419922 -0.35113281 7.61089844 -0.30664062 6.66992188 C-0.20188243 4.44672009 -0.09970983 2.22343293 0 0 Z " fill="#42A596" transform="translate(315,210)"/>
<path d="M0 0 C1.875 0.3125 1.875 0.3125 4 1 C4.66 1.99 5.32 2.98 6 4 C4.35 6.64 2.7 9.28 1 12 C-0.65 11.67 -2.3 11.34 -4 11 C-3.48964169 6.6109185 -2.47785723 3.66291938 0 0 Z " fill="#4CD0B7" transform="translate(201,188)"/>
<path d="M0 0 C0.53625 0.226875 1.0725 0.45375 1.625 0.6875 C1.955 2.0075 2.285 3.3275 2.625 4.6875 C1.35808493 5.36158308 0.08629251 6.02650497 -1.1875 6.6875 C-1.89519531 7.05875 -2.60289062 7.43 -3.33203125 7.8125 C-5.375 8.6875 -5.375 8.6875 -8.375 8.6875 C-8.375 6.7075 -8.375 4.7275 -8.375 2.6875 C-2.95961538 -0.38942308 -2.95961538 -0.38942308 0 0 Z " fill="#153B48" transform="translate(276.375,264.3125)"/>
<path d="M0 0 C2.31 1.98 4.62 3.96 7 6 C6.01 6.66 5.02 7.32 4 8 C2.68 6.68 1.36 5.36 0 4 C0 5.65 0 7.3 0 9 C0.66 9 1.32 9 2 9 C1.82374165 11.37948772 1.30280227 12.70225849 -0.40234375 14.37890625 C-1.90649092 15.62115486 -3.45129851 16.81376056 -5 18 C-5.99 17.34 -6.98 16.68 -8 16 C-5.69 14.68 -3.38 13.36 -1 12 C-1.60183749 9.97954558 -2.27306096 7.97888961 -3 6 C-3.66 5.67 -4.32 5.34 -5 5 C-3.35 3.35 -1.7 1.7 0 0 Z " fill="#0A222E" transform="translate(291,266)"/>
<path d="M0 0 C1.32 0.66 2.64 1.32 4 2 C4 2.66 4 3.32 4 4 C4.66 4 5.32 4 6 4 C4.50902342 7.7952131 2.24299151 9.61042731 -1 12 C-1 10.02 -1 8.04 -1 6 C-2.65 6.33 -4.3 6.66 -6 7 C-4.02 4.69 -2.04 2.38 0 0 Z " fill="#5AD3A9" transform="translate(222,184)"/>
<path d="M0 0 C1.13583456 3.71727674 0.66670026 5.47051709 -1 9 C-0.01 9.99 0.98 10.98 2 12 C1.01 13.485 1.01 13.485 0 15 C-2.97 14.505 -2.97 14.505 -6 14 C-5.57202798 8.29370646 -3.15654048 4.58921384 0 0 Z " fill="#61C5A0" transform="translate(190,179)"/>
<path d="M0 0 C1.55078125 1.17578125 1.55078125 1.17578125 3 3 C2.85546875 5.48046875 2.85546875 5.48046875 2.1875 8.1875 C1.97480469 9.08855469 1.76210938 9.98960937 1.54296875 10.91796875 C1.36378906 11.60503906 1.18460937 12.29210937 1 13 C0.34 12.34 -0.32 11.68 -1 11 C-3.60280568 11.32041397 -3.60280568 11.32041397 -6 12 C-5.34 11.67 -4.68 11.34 -4 11 C-4 9.35 -4 7.7 -4 6 C-3.34 6 -2.68 6 -2 6 C-1.34 4.02 -0.68 2.04 0 0 Z " fill="#3EDCC5" transform="translate(288,227)"/>
<path d="M0 0 C4.76058041 5.52841596 4.76058041 5.52841596 5 9 C4.34 9.66 3.68 10.32 3 11 C3 10.34 3 9.68 3 9 C1.68 9 0.36 9 -1 9 C-1 10.65 -1 12.3 -1 14 C-2.99097846 11.01353231 -3.94124926 8.40312738 -5 5 C-3.35 4.67 -1.7 4.34 0 4 C0 2.68 0 1.36 0 0 Z " fill="#59CAA3" transform="translate(287,194)"/>
<path d="M0 0 C8.58 0.99 17.16 1.98 26 3 C26 3.33 26 3.66 26 4 C5.63959391 4.31979695 5.63959391 4.31979695 1 2 C1.33 3.32 1.66 4.64 2 6 C3.65 6.33 5.3 6.66 7 7 C4.39417629 7.93065133 3.35801776 8.14917407 0.75 7.0625 C0.1725 6.711875 -0.405 6.36125 -1 6 C-0.67 4.02 -0.34 2.04 0 0 Z " fill="#3D9DA4" transform="translate(230,281)"/>
<path d="M0 0 C4.75 0.75 4.75 0.75 7 3 C7 3.99 7 4.98 7 6 C7.66 6 8.32 6 9 6 C9.33 7.98 9.66 9.96 10 12 C8.0625 11.1875 8.0625 11.1875 6 10 C5.67 9.01 5.34 8.02 5 7 C4.01 6.67 3.02 6.34 2 6 C2 5.34 2 4.68 2 4 C1.01 3.67 0.02 3.34 -1 3 C-0.67 2.01 -0.34 1.02 0 0 Z " fill="#39ACB1" transform="translate(202,265)"/>
<path d="M0 0 C3.3 0.99 6.6 1.98 10 3 C10 3.33 10 3.66 10 4 C7.69 4.33 5.38 4.66 3 5 C3 5.99 3 6.98 3 8 C-1.99911924 7.52389341 -4.97832683 5.96837781 -9 3 C-5.98968256 2.06576355 -5.13349732 1.95550089 -2 3 C-1.34 2.67 -0.68 2.34 0 2 C0 1.34 0 0.68 0 0 Z " fill="#41BFBD" transform="translate(233,251)"/>
<path d="M0 0 C0.33 2.31 0.66 4.62 1 7 C-5.625 10 -5.625 10 -9 10 C-8.42110619 6.71245489 -7.45171589 5.06327505 -5.0625 2.75 C-4.53785156 2.22921875 -4.01320312 1.7084375 -3.47265625 1.171875 C-2 0 -2 0 0 0 Z " fill="#7CDB9C" transform="translate(204,165)"/>
<path d="M0 0 C2 2 2 2 2.375 5.875 C2.27521718 8.76344993 2.04033165 9.92985799 0.5625 12.5 C-3.1319249 14.66259019 -6.81434414 14.85563131 -11 14 C-12.77734375 12.59765625 -12.77734375 12.59765625 -14 11 C-14 10.34 -14 9.68 -14 9 C-13.01 9 -12.02 9 -11 9 C-10.67 9.66 -10.34 10.32 -10 11 C-7.87423218 11.46651207 -7.87423218 11.46651207 -5.4375 11.625 C-4.61121094 11.69976562 -3.78492188 11.77453125 -2.93359375 11.8515625 C-2.29550781 11.90054687 -1.65742188 11.94953125 -1 12 C-1 10.35 -1 8.7 -1 7 C-0.34 7 0.32 7 1 7 C0.67 4.69 0.34 2.38 0 0 Z " fill="#46C6D1" transform="translate(322,278)"/>
<path d="M0 0 C2.625 0.375 2.625 0.375 5 1 C5.625 3.375 5.625 3.375 6 6 C5.34 6.66 4.68 7.32 4 8 C1.375 7.625 1.375 7.625 -1 7 C-1.625 4.625 -1.625 4.625 -2 2 C-1.34 1.34 -0.68 0.68 0 0 Z " fill="#65C39F" transform="translate(303,208)"/>
<path d="M0 0 C3.53586014 3.17320782 5.58578031 5.16743695 6 10 C5.01 10.33 4.02 10.66 3 11 C1.17578125 9.78515625 1.17578125 9.78515625 -0.6875 8.0625 C-1.31011719 7.49660156 -1.93273437 6.93070312 -2.57421875 6.34765625 C-3.04472656 5.90292969 -3.51523437 5.45820313 -4 5 C-2.68 3.35 -1.36 1.7 0 0 Z " fill="#2CE3DB" transform="translate(297,261)"/>
<path d="M0 0 C1.67542976 0.28604898 3.34385343 0.61781233 5 1 C5 2.98 5 4.96 5 7 C2.625 7.625 2.625 7.625 0 8 C-0.66 7.34 -1.32 6.68 -2 6 C-1.44444444 1.44444444 -1.44444444 1.44444444 0 0 Z " fill="#122E36" transform="translate(302,339)"/>
<path d="M0 0 C1.67542976 0.28604898 3.34385343 0.61781233 5 1 C5.625 3.375 5.625 3.375 6 6 C5.34 6.66 4.68 7.32 4 8 C1.375 7.625 1.375 7.625 -1 7 C-1.04254356 5.00045254 -1.04080783 2.99958364 -1 1 C-0.67 0.67 -0.34 0.34 0 0 Z " fill="#2A343E" transform="translate(270,339)"/>
<path d="M0 0 C1.67542976 0.28604898 3.34385343 0.61781233 5 1 C5 2.98 5 4.96 5 7 C2.625 7.625 2.625 7.625 0 8 C-0.66 7.34 -1.32 6.68 -2 6 C-1.44444444 1.44444444 -1.44444444 1.44444444 0 0 Z " fill="#29343E" transform="translate(248,339)"/>
<path d="M0 0 C0.99 0.99 1.98 1.98 3 3 C2.01 3.99 1.02 4.98 0 6 C1.2375 6.928125 1.2375 6.928125 2.5 7.875 C3.325 8.57625 4.15 9.2775 5 10 C5 10.66 5 11.32 5 12 C5.66 12.33 6.32 12.66 7 13 C6.01 13.495 6.01 13.495 5 14 C3.70145279 12.92492371 2.41141639 11.83956264 1.125 10.75 C0.40570313 10.14671875 -0.31359375 9.5434375 -1.0546875 8.921875 C-2.97052118 7.02912366 -3.96449045 5.46342273 -5 3 C-3.35 2.67 -1.7 2.34 0 2 C0 1.34 0 0.68 0 0 Z " fill="#3BA2A8" transform="translate(202,262)"/>
<path d="M0 0 C2.625 0.375 2.625 0.375 5 1 C5.625 2.875 5.625 2.875 6 5 C4 7 4 7 1.375 7.125 C0.59125 7.08375 -0.1925 7.0425 -1 7 C-1.625 4.625 -1.625 4.625 -2 2 C-1.34 1.34 -0.68 0.68 0 0 Z " fill="#DDDFE0" transform="translate(286,344)"/>
<path d="M0 0 C2.375 -0.125 2.375 -0.125 5 0 C5.66 0.66 6.32 1.32 7 2 C6.625 4.125 6.625 4.125 6 6 C3.625 6.625 3.625 6.625 1 7 C0.34 6.34 -0.32 5.68 -1 5 C-0.625 2.375 -0.625 2.375 0 0 Z " fill="#8BC684" transform="translate(268,164)"/>
<path d="M0 0 C1.65 0.33 3.3 0.66 5 1 C5.625 3.375 5.625 3.375 6 6 C5.34 6.66 4.68 7.32 4 8 C1.875 7.625 1.875 7.625 0 7 C-1.125 2.25 -1.125 2.25 0 0 Z " fill="#48B5AC" transform="translate(197,233)"/>
<path d="M0 0 C1.98 0 3.96 0 6 0 C5.88590407 1.45922693 5.75834456 2.91740598 5.625 4.375 C5.55539062 5.18710938 5.48578125 5.99921875 5.4140625 6.8359375 C5 9 5 9 3 11 C3 8.69 3 6.38 3 4 C2.34 4 1.68 4 1 4 C0.67 5.32 0.34 6.64 0 8 C-1.09658936 4.71023192 -0.79953138 3.28696233 0 0 Z " fill="#50B9AA" transform="translate(302,224)"/>
<path d="M0 0 C2.97 0.495 2.97 0.495 6 1 C6.042721 2.66611905 6.04063832 4.33382885 6 6 C5 7 5 7 2.4375 7.0625 C1.2309375 7.0315625 1.2309375 7.0315625 0 7 C0 4.69 0 2.38 0 0 Z " fill="#48BDAF" transform="translate(194,204)"/>
<path d="M0 0 C0.66 0.33 1.32 0.66 2 1 C0.89718873 2.27200971 -0.20730769 3.54255853 -1.3125 4.8125 C-1.92738281 5.52019531 -2.54226562 6.22789062 -3.17578125 6.95703125 C-4.73334335 8.70136739 -6.32658875 10.36778041 -8 12 C-8.99 11.67 -9.98 11.34 -11 11 C-7.81316569 6.66590534 -4.13621084 3.3810038 0 0 Z " fill="#13312A" transform="translate(211,166)"/>
<path d="M0 0 C0.66 0.66 1.32 1.32 2 2 C4.58354218 2.16687448 4.58354218 2.16687448 7 2 C7 2.66 7 3.32 7 4 C6.34 4 5.68 4 5 4 C5 5.98 5 7.96 5 10 C4.67 9.34 4.34 8.68 4 8 C1.47266765 7.34444881 1.47266765 7.34444881 -1 7 C-0.67 4.69 -0.34 2.38 0 0 Z " fill="#1D6668" transform="translate(196,197)"/>
<path d="M0 0 C0 2.31 0 4.62 0 7 C-1.32 7 -2.64 7 -4 7 C-4.66 6.01 -5.32 5.02 -6 4 C-6.99 3.34 -7.98 2.68 -9 2 C-5.62902617 0.50178941 -3.79557881 0 0 0 Z " fill="#436851" transform="translate(238,162)"/>
<path d="M0 0 C1.06337251 4.25349005 1.06328907 4.62505836 -0.875 8.1875 C-1.42800781 9.22970703 -1.42800781 9.22970703 -1.9921875 10.29296875 C-3 12 -3 12 -4 13 C-6.33297433 13.04092937 -8.66705225 13.04241723 -11 13 C-11.33 12.34 -11.66 11.68 -12 11 C-10.02 11 -8.04 11 -6 11 C-4.02 7.37 -2.04 3.74 0 0 Z " fill="#113932" transform="translate(196,182)"/>
<path d="M0 0 C2.475 0.99 2.475 0.99 5 2 C5 5.3 5 8.6 5 12 C1.96079826 8.96079826 1.55734163 8.26589018 0.8125 4.3125 C0.65394531 3.50425781 0.49539062 2.69601563 0.33203125 1.86328125 C0.22246094 1.24839844 0.11289063 0.63351563 0 0 Z " fill="#3ECBC3" transform="translate(181,230)"/>
<path d="M0 0 C0.33 0 0.66 0 1 0 C1 4.29 1 8.58 1 13 C-0.98 13 -2.96 13 -5 13 C-5 9.37 -5 5.74 -5 2 C-4.67 2 -4.34 2 -4 2 C-4 4.97 -4 7.94 -4 11 C-0.82990528 9.37921338 -0.82990528 9.37921338 -0.48828125 6.8359375 C-0.43027344 6.02382812 -0.37226563 5.21171875 -0.3125 4.375 C-0.24675781 3.55773437 -0.18101562 2.74046875 -0.11328125 1.8984375 C-0.07589844 1.27195313 -0.03851563 0.64546875 0 0 Z " fill="#1B464E" transform="translate(198,213)"/>
<path d="M0 0 C3.3 0.33 6.6 0.66 10 1 C10 1.33 10 1.66 10 2 C7.36 2 4.72 2 2 2 C2.45375 2.45375 2.9075 2.9075 3.375 3.375 C4.58333333 4.58333333 5.79166667 5.79166667 7 7 C3.87709365 6.51421457 1.00419641 6.0013988 -2 5 C-1.34 3.35 -0.68 1.7 0 0 Z " fill="#398C95" transform="translate(234,268)"/>
<path d="M0 0 C2.475 0.99 2.475 0.99 5 2 C4.34 3.65 3.68 5.3 3 7 C1.68 6.67 0.36 6.34 -1 6 C-1.625 4.125 -1.625 4.125 -2 2 C-1.34 1.34 -0.68 0.68 0 0 Z " fill="#142B39" transform="translate(222,262)"/>
<path d="M0 0 C0 2.31 0 4.62 0 7 C-0.99 7.495 -0.99 7.495 -2 8 C-2 7.34 -2 6.68 -2 6 C-3.32 5.67 -4.64 5.34 -6 5 C-5.6875 3.0625 -5.6875 3.0625 -5 1 C-2 0 -2 0 0 0 Z " fill="#5EDEB3" transform="translate(221,190)"/>
<path d="M0 0 C1.67542976 0.28604898 3.34385343 0.61781233 5 1 C4.67 2.65 4.34 4.3 4 6 C2.35 6 0.7 6 -1 6 C-1.042721 4.33388095 -1.04063832 2.66617115 -1 1 C-0.67 0.67 -0.34 0.34 0 0 Z " fill="#45CFBE" transform="translate(318,325)"/>
<path d="M0 0 C0.66 0.99 1.32 1.98 2 3 C1.67 3.99 1.34 4.98 1 6 C2.32 5.67 3.64 5.34 5 5 C4.34 6.65 3.68 8.3 3 10 C-0.74278215 8.5511811 -0.74278215 8.5511811 -1.875 6.125 C-2.02787435 3.52613603 -1.33454536 2.1980747 0 0 Z " fill="#3FA7A4" transform="translate(307,249)"/>
<path d="M0 0 C1.32 0 2.64 0 4 0 C4.80967438 2.91482778 5.21845993 4.46113217 4.0625 7.3125 C3.5365625 8.1478125 3.5365625 8.1478125 3 9 C2.01 8.67 1.02 8.34 0 8 C0 5.36 0 2.72 0 0 Z " fill="#49D6BA" transform="translate(316,226)"/>
<path d="M0 0 C1.32 0 2.64 0 4 0 C4.33 1.98 4.66 3.96 5 6 C3.35 6.66 1.7 7.32 0 8 C0 5.36 0 2.72 0 0 Z " fill="#51E2B2" transform="translate(286,203)"/>
<path d="M0 0 C1.26237731 2.52475462 1.09856404 4.31200466 1.0625 7.125 C1.05347656 8.03507813 1.04445312 8.94515625 1.03515625 9.8828125 C1.02355469 10.58148438 1.01195312 11.28015625 1 12 C0.01 12.495 0.01 12.495 -1 13 C-1.99 12.34 -2.98 11.68 -4 11 C-3.5247412 9.35303396 -3.04468109 7.70745272 -2.5625 6.0625 C-2.29566406 5.14597656 -2.02882812 4.22945312 -1.75390625 3.28515625 C-1 1 -1 1 0 0 Z " fill="#68DCA8" transform="translate(192,177)"/>
<path d="M0 0 C-1.30855553 1.83615081 -2.62194462 3.66885789 -3.9375 5.5 C-4.66839844 6.5209375 -5.39929688 7.541875 -6.15234375 8.59375 C-6.76207031 9.3878125 -7.37179688 10.181875 -8 11 C-8.33 11 -8.66 11 -9 11 C-9 9.35 -9 7.7 -9 6 C-8.34 6 -7.68 6 -7 6 C-6.9175 5.21625 -6.835 4.4325 -6.75 3.625 C-6 1 -6 1 -4.0625 -0.375 C-2 -1 -2 -1 0 0 Z " fill="#75D39F" transform="translate(204,173)"/>
<path d="M0 0 C0.66 0.66 1.32 1.32 2 2 C1.67 2.66 1.34 3.32 1 4 C1.61875 4.2475 2.2375 4.495 2.875 4.75 C5.35068687 6.20628639 5.95125002 7.37812506 7 10 C4.69 9.67 2.38 9.34 0 9 C0 6.03 0 3.06 0 0 Z " fill="#3BCEC2" transform="translate(284,243)"/>
<path d="M0 0 C-1.12451727 2.9719385 -2.22293791 5.33440687 -4 8 C-6.62187494 6.95125002 -7.79371361 6.35068687 -9.25 3.875 C-9.4975 3.25625 -9.745 2.6375 -10 2 C-9.01 2.33 -8.02 2.66 -7 3 C-7 3.66 -7 4.32 -7 5 C-6.34 5 -5.68 5 -5 5 C-4.814375 4.0409375 -4.814375 4.0409375 -4.625 3.0625 C-4.41875 2.381875 -4.2125 1.70125 -4 1 C-2 0 -2 0 0 0 Z " fill="#0A373C" transform="translate(284,232)"/>
<path d="M0 0 C3 1 3 1 4 3 C4.039992 4.99960012 4.04346799 7.00047242 4 9 C3.34 8.67 2.68 8.34 2 8 C1.34 8.99 0.68 9.98 0 11 C-0.19406478 9.35492782 -0.38007935 7.70890406 -0.5625 6.0625 C-0.66691406 5.14597656 -0.77132813 4.22945312 -0.87890625 3.28515625 C-0.91886719 2.53105469 -0.95882813 1.77695313 -1 1 C-0.67 0.67 -0.34 0.34 0 0 Z " fill="#62DFA7" transform="translate(315,196)"/>
<path d="M0 0 C0.66 0.33 1.32 0.66 2 1 C1.855625 2.258125 1.71125 3.51625 1.5625 4.8125 C0.96183814 10.20129495 0.47449461 15.59883791 0 21 C-0.33 21 -0.66 21 -1 21 C-1.02888146 17.68751813 -1.04675799 14.37506833 -1.0625 11.0625 C-1.07087891 10.11697266 -1.07925781 9.17144531 -1.08789062 8.19726562 C-1.09111328 7.29814453 -1.09433594 6.39902344 -1.09765625 5.47265625 C-1.10289307 4.64000244 -1.10812988 3.80734863 -1.11352539 2.94946289 C-1 1 -1 1 0 0 Z " fill="#56D4BA" transform="translate(214,200)"/>
<path d="M0 0 C2.3125 0.125 2.3125 0.125 5 1 C6.875 3.9375 6.875 3.9375 8 7 C7.67 7.66 7.34 8.32 7 9 C6.01 8.34 5.02 7.68 4 7 C4 6.01 4 5.02 4 4 C2.35 3.67 0.7 3.34 -1 3 C-0.67 2.01 -0.34 1.02 0 0 Z " fill="#85DE8D" transform="translate(299,171)"/>
<path d="M0 0 C0.66 0.33 1.32 0.66 2 1 C-0.69557909 3.75942175 -1.94740016 3.99899659 -5.890625 4.07421875 C-7.34512042 3.96182592 -8.79838312 3.83240522 -10.25 3.6875 C-10.99507812 3.62626953 -11.74015625 3.56503906 -12.5078125 3.50195312 C-14.33982155 3.3492857 -16.17014316 3.17660246 -18 3 C-18 2.67 -18 2.34 -18 2 C-16.95199219 1.93941406 -15.90398437 1.87882813 -14.82421875 1.81640625 C-13.44529952 1.73198262 -12.06639395 1.64733553 -10.6875 1.5625 C-9.99720703 1.52318359 -9.30691406 1.48386719 -8.59570312 1.44335938 C-5.52838465 1.25072585 -2.93031848 0.97677283 0 0 Z " fill="#43C1BE" transform="translate(261,253)"/>
<path d="M0 0 C3.84160316 5.76240474 4.23538321 11.29157865 4 18 C1.94363913 14.91545869 1.48865646 13.15190326 0.875 9.5625 C0.62363281 8.14130859 0.62363281 8.14130859 0.3671875 6.69140625 C0 4 0 4 0 0 Z " fill="#62BE9D" transform="translate(318,195)"/>
<path d="M0 0 C2.64752004 2.57784846 4.94432065 4.91648098 7 8 C6.01 8.495 6.01 8.495 5 9 C4.4121875 8.2265625 4.4121875 8.2265625 3.8125 7.4375 C2.9153125 6.7259375 2.9153125 6.7259375 2 6 C-0.65466049 6.23043864 -0.65466049 6.23043864 -3 7 C-1.125 2.25 -1.125 2.25 0 0 Z " fill="#84C685" transform="translate(300,166)"/>
<path d="M0 0 C1.98 0.66 3.96 1.32 6 2 C6 2.66 6 3.32 6 4 C6.99 4.33 7.98 4.66 9 5 C8.67 6.32 8.34 7.64 8 9 C6.66368764 7.6905332 5.33102075 6.37734515 4 5.0625 C3.2575 4.33160156 2.515 3.60070312 1.75 2.84765625 C0 1 0 1 0 0 Z " fill="#0C353F" transform="translate(295,256)"/>
<path d="M0 0 C0.33 0 0.66 0 1 0 C1.33 6.93 1.66 13.86 2 21 C0.02 21.99 0.02 21.99 -2 23 C-1.76990234 22.05060547 -1.76990234 22.05060547 -1.53515625 21.08203125 C-0.81937036 16.95973151 -0.63849837 12.86233493 -0.4375 8.6875 C-0.39431641 7.85154297 -0.35113281 7.01558594 -0.30664062 6.15429688 C-0.20114693 4.10303065 -0.10012685 2.0515352 0 0 Z " fill="#1E5E58" transform="translate(294,210)"/>
<path d="M0 0 C0.33 0 0.66 0 1 0 C1.05392397 2.77109307 1.09363455 5.54113818 1.125 8.3125 C1.14175781 9.09818359 1.15851563 9.88386719 1.17578125 10.69335938 C1.18222656 11.45068359 1.18867188 12.20800781 1.1953125 12.98828125 C1.20578613 13.68477783 1.21625977 14.38127441 1.22705078 15.09887695 C1 17 1 17 -1 20 C-1.66 20 -2.32 20 -3 20 C-2.690625 18.9275 -2.38125 17.855 -2.0625 16.75 C-0.66570282 11.24206217 -0.35811202 5.65440039 0 0 Z " fill="#4CB9AB" transform="translate(287,213)"/>
<path d="M0 0 C2.3431213 0.25561323 4.67843403 0.59270772 7 1 C7.33 1.66 7.66 2.32 8 3 C4.7 3.66 1.4 4.32 -2 5 C-1.34 3.35 -0.68 1.7 0 0 Z " fill="#38C8CA" transform="translate(313,275)"/>
<path d="M0 0 C2.31 0 4.62 0 7 0 C7.875 3.1875 7.875 3.1875 8 7 C6.21974097 9.21299892 4.39362281 10.38796831 2 12 C3.33333333 8.66666667 4.66666667 5.33333333 6 2 C3.03 1.505 3.03 1.505 0 1 C0 0.67 0 0.34 0 0 Z " fill="#133F47" transform="translate(309,246)"/>
<path d="M0 0 C2.96052484 3.36423277 3.92289822 6.69159287 5 11 C4.01 11.33 3.02 11.66 2 12 C2 10.35 2 8.7 2 7 C1.34 7 0.68 7 0 7 C0 4.69 0 2.38 0 0 Z " fill="#6FC897" transform="translate(313,183)"/>
<path d="M0 0 C2.9375 0.8125 2.9375 0.8125 6 2 C6.33 2.99 6.66 3.98 7 5 C4.21176345 6.0326802 3.1322726 6.04509293 0.25 5.0625 C-0.4925 4.711875 -1.235 4.36125 -2 4 C-1.34 2.68 -0.68 1.36 0 0 Z " fill="#36D6C7" transform="translate(227,249)"/>
<path d="M0 0 C6.258654 -0.5326514 10.45108785 1.18150494 16 4 C16 4.33 16 4.66 16 5 C10.04680699 5.55811184 4.8643526 3.24290174 0 0 Z " fill="#0B3229" transform="translate(253,182)"/>
<path d="M0 0 C1.98 0 3.96 0 6 0 C6 1.33333333 6 2.66666667 6 4 C3.36 4.33 0.72 4.66 -2 5 C-1.34 3.35 -0.68 1.7 0 0 Z " fill="#37B5BB" transform="translate(278,278)"/>
<path d="M0 0 C2.31 0.33 4.62 0.66 7 1 C7.33 2.98 7.66 4.96 8 7 C6.0625 6.1875 6.0625 6.1875 4 5 C3.67 4.01 3.34 3.02 3 2 C2.01 1.67 1.02 1.34 0 1 C0 0.67 0 0.34 0 0 Z " fill="#34B4B7" transform="translate(204,270)"/>
<path d="M0 0 C-10.37357631 4.59225513 -10.37357631 4.59225513 -16 4 C-13.21769572 2.14513048 -11.15636393 1.27537888 -8 0.3125 C-6.700625 -0.09548828 -6.700625 -0.09548828 -5.375 -0.51171875 C-3 -1 -3 -1 0 0 Z " fill="#44BDB8" transform="translate(270,258)"/>
<path d="M0 0 C1.12894876 0.93274109 2.25300876 1.87140122 3.375 2.8125 C4.00148438 3.33457031 4.62796875 3.85664063 5.2734375 4.39453125 C7 6 7 6 9 9 C7.35 8.67 5.7 8.34 4 8 C3.896875 7.360625 3.79375 6.72125 3.6875 6.0625 C3.460625 5.381875 3.23375 4.70125 3 4 C2.01 3.67 1.02 3.34 0 3 C0 2.01 0 1.02 0 0 Z " fill="#0C3943" transform="translate(282,257)"/>
<path d="M0 0 C2.475 0.99 2.475 0.99 5 2 C4.67 3.65 4.34 5.3 4 7 C2.35 7.33 0.7 7.66 -1 8 C-1.33 7.34 -1.66 6.68 -2 6 C-0.35 6 1.3 6 3 6 C3 5.01 3 4.02 3 3 C2.01 2.67 1.02 2.34 0 2 C0 1.34 0 0.68 0 0 Z " fill="#3F8E97" transform="translate(218,275)"/>
<path d="M0 0 C0.66 0.99 1.32 1.98 2 3 C4.05925139 3.72382467 4.05925139 3.72382467 6 4 C5.01 5.485 5.01 5.485 4 7 C2.35 6.67 0.7 6.34 -1 6 C-0.67 4.02 -0.34 2.04 0 0 Z " fill="#46B9A9" transform="translate(198,193)"/>
<path d="M0 0 C-1.19899698 3.0831351 -2.47700477 6.06279492 -4 9 C-5.125 7.25 -5.125 7.25 -6 5 C-4.84489476 1.63094305 -3.74484822 0 0 0 Z " fill="#0C2B31" transform="translate(201,188)"/>
<path d="M0 0 C2 2 2 2 2.3125 5.9375 C2.25612142 8.76155426 2.23113287 9.69182284 0.5 12 C0.005 12.33 -0.49 12.66 -1 13 C-1 11.02 -1 9.04 -1 7 C-0.34 7 0.32 7 1 7 C0.67 4.69 0.34 2.38 0 0 Z " fill="#3EC1C9" transform="translate(322,278)"/>
<path d="M0 0 C2.97 0.495 2.97 0.495 6 1 C5.67 3.64 5.34 6.28 5 9 C4.67 9 4.34 9 4 9 C4 7.02 4 5.04 4 3 C2.68 3 1.36 3 0 3 C0 2.01 0 1.02 0 0 Z " fill="#5EC2AD" transform="translate(181,201)"/>
<path d="M0 0 C1.32 1.32 2.64 2.64 4 4 C3.34 5.32 2.68 6.64 2 8 C-0.475 7.01 -0.475 7.01 -3 6 C-2.01 5.67 -1.02 5.34 0 5 C0 3.35 0 1.7 0 0 Z " fill="#3D8D95" transform="translate(212,253)"/>
<path d="M0 0 C0.66 0 1.32 0 2 0 C2.33 1.98 2.66 3.96 3 6 C3.99 6 4.98 6 6 6 C6.33 7.32 6.66 8.64 7 10 C4.50175965 8.5023304 2.13995327 6.98441782 0 5 C-0.4375 2.1875 -0.4375 2.1875 0 0 Z " fill="#094042" transform="translate(265,222)"/>
<path d="M0 0 C1.05566977 3.16700931 0.97926374 3.96428241 0 7 C-0.33 7.66 -0.66 8.32 -1 9 C-1.66 9 -2.32 9 -3 9 C-3.33 9.66 -3.66 10.32 -4 11 C-4 9.68 -4 8.36 -4 7 C-3.34 7 -2.68 7 -2 7 C-1.855625 6.030625 -1.71125 5.06125 -1.5625 4.0625 C-1 1 -1 1 0 0 Z " fill="#0C2F37" transform="translate(205,194)"/>
<path d="M0 0 C0.66 0.33 1.32 0.66 2 1 C0.8125 3.4375 0.8125 3.4375 -1 6 C-3.6875 6.8125 -3.6875 6.8125 -6 7 C-4.02 4.69 -2.04 2.38 0 0 Z " fill="#59C2A2" transform="translate(222,184)"/>
<path d="M0 0 C-2 1.33333333 -4 2.66666667 -6 4 C-6.66 4.99 -7.32 5.98 -8 7 C-8.33 5.35 -8.66 3.7 -9 2 C-3.375 -1.125 -3.375 -1.125 0 0 Z " fill="#497357" transform="translate(230,166)"/>
<path d="M0 0 C0 0.66 0 1.32 0 2 C0.66 2 1.32 2 2 2 C2 2.99 2 3.98 2 5 C-0.31 4.67 -2.62 4.34 -5 4 C-5 3.34 -5 2.68 -5 2 C-2 0 -2 0 0 0 Z " fill="#9FE182" transform="translate(291,159)"/>
<path d="M0 0 C0.66 0 1.32 0 2 0 C1.67 2.31 1.34 4.62 1 7 C-1.64 6.67 -4.28 6.34 -7 6 C-7 5.67 -7 5.34 -7 5 C-3.535 4.505 -3.535 4.505 0 4 C0 2.68 0 1.36 0 0 Z " fill="#84B678" transform="translate(271,149)"/>
<path d="M0 0 C2.97 0 5.94 0 9 0 C8.67 0.66 8.34 1.32 8 2 C4.9375 2.625 4.9375 2.625 2 3 C1.34 2.01 0.68 1.02 0 0 Z " fill="#1A2530" transform="translate(227,344)"/>
<path d="M0 0 C2.31 1.98 4.62 3.96 7 6 C6.01 6.66 5.02 7.32 4 8 C2 6.25 2 6.25 0 4 C0 2.68 0 1.36 0 0 Z " fill="#0E3A45" transform="translate(291,266)"/>
<path d="M0 0 C2.475 0.495 2.475 0.495 5 1 C5 1.99 5 2.98 5 4 C3.35 4.33 1.7 4.66 0 5 C0 3.35 0 1.7 0 0 Z " fill="#37B7BA" transform="translate(197,260)"/>
<path d="M0 0 C1.17539996 0.92652701 2.34010577 1.86663387 3.5 2.8125 C4.1496875 3.33457031 4.799375 3.85664063 5.46875 4.39453125 C7 6 7 6 7 9 C6.34 9 5.68 9 5 9 C4.67 8.01 4.34 7.02 4 6 C3.01 5.67 2.02 5.34 1 5 C0.67 3.35 0.34 1.7 0 0 Z " fill="#10464D" transform="translate(265,240)"/>
<path d="M0 0 C0.33 1.32 0.66 2.64 1 4 C0.34 4 -0.32 4 -1 4 C-1.144375 4.61875 -1.28875 5.2375 -1.4375 5.875 C-2 8 -2 8 -3 10 C-3.66 10 -4.32 10 -5 10 C-3.66511872 6.40608886 -2.03977277 3.24509304 0 0 Z " fill="#124D4D" transform="translate(290,237)"/>
<path d="M0 0 C2.45823172 3.68734758 3.01242616 6.69699971 4 11 C3.34 11 2.68 11 2 11 C-0.67927341 6.98108988 -0.15601248 4.75838077 0 0 Z " fill="#3BACA3" transform="translate(214,224)"/>
<path d="M0 0 C0.33 0.99 0.66 1.98 1 3 C2.98 3 4.96 3 7 3 C6.67 3.99 6.34 4.98 6 6 C4.35 5.67 2.7 5.34 1 5 C0.67 3.35 0.34 1.7 0 0 Z " fill="#59B08F" transform="translate(301,210)"/>
<path d="M0 0 C1.32 0.66 2.64 1.32 4 2 C2.9375 3.5625 2.9375 3.5625 1 5 C-2.6875 4.6875 -2.6875 4.6875 -6 4 C-6 3.67 -6 3.34 -6 3 C-4.02 3 -2.04 3 0 3 C0 2.01 0 1.02 0 0 Z " fill="#8AC77E" transform="translate(296,163)"/>
<path d="M0 0 C4.41889613 1.35021826 6.34345343 3.26115668 9 7 C6 7 6 7 4.39453125 5.46875 C3.87246094 4.8190625 3.35039062 4.169375 2.8125 3.5 C2.28269531 2.8503125 1.75289063 2.200625 1.20703125 1.53125 C0.80871094 1.0259375 0.41039062 0.520625 0 0 Z " fill="#47CCCC" transform="translate(291,265)"/>
<path d="M0 0 C-0.125 1.875 -0.125 1.875 -1 4 C-4.0625 5.25 -4.0625 5.25 -7 6 C-7.33 5.01 -7.66 4.02 -8 3 C-2.25 0 -2.25 0 0 0 Z " fill="#3AB5AF" transform="translate(271,249)"/>
<path d="M0 0 C2.64 0 5.28 0 8 0 C8.33 0.99 8.66 1.98 9 3 C6.03 2.67 3.06 2.34 0 2 C0 1.34 0 0.68 0 0 Z " fill="#45DCCF" transform="translate(252,216)"/>
<path d="M0 0 C0.66 0 1.32 0 2 0 C2.33 2.31 2.66 4.62 3 7 C1.68 6.67 0.36 6.34 -1 6 C-0.67 4.02 -0.34 2.04 0 0 Z " fill="#94C584" transform="translate(280,154)"/>
<path d="M0 0 C0 0.99 0 1.98 0 3 C-2.5 5.1875 -2.5 5.1875 -5 7 C-5.99 6.34 -6.98 5.68 -8 5 C-4.04 2.525 -4.04 2.525 0 0 Z " fill="#103744" transform="translate(291,277)"/>
<path d="M0 0 C4.875 3.625 4.875 3.625 6 7 C4.35 6.67 2.7 6.34 1 6 C0.67 4.02 0.34 2.04 0 0 Z " fill="#3AC7B7" transform="translate(270,231)"/>
<path d="M0 0 C0.33 0.66 0.66 1.32 1 2 C1.66 2 2.32 2 3 2 C2.6875 3.875 2.6875 3.875 2 6 C1.01 6.66 0.02 7.32 -1 8 C-0.67 5.36 -0.34 2.72 0 0 Z " fill="#092B30" transform="translate(308,224)"/>
<path d="M0 0 C1.875 0.3125 1.875 0.3125 4 1 C4.66 1.99 5.32 2.98 6 4 C5.34 4.66 4.68 5.32 4 6 C3.67 5.34 3.34 4.68 3 4 C0.98330173 2.86649466 0.98330173 2.86649466 -1 2 C-0.67 1.34 -0.34 0.68 0 0 Z " fill="#54B3A2" transform="translate(201,188)"/>
<path d="M0 0 C2.97 0.495 2.97 0.495 6 1 C6 2.65 6 4.3 6 6 C3.97945196 4.35830472 1.97956942 2.69088222 0 1 C0 0.67 0 0.34 0 0 Z " fill="#46CFCE" transform="translate(299,273)"/>
<path d="M0 0 C3.057952 1.73559438 5.63379989 3.38472619 8 6 C5.03 5.505 5.03 5.505 2 5 C2 4.01 2 3.02 2 2 C1.34 2 0.68 2 0 2 C0 1.34 0 0.68 0 0 Z " fill="#3C9EA6" transform="translate(209,269)"/>
<path d="M0 0 C2.91517292 1.07401108 4.77810176 1.77810176 7 4 C6.67 4.99 6.34 5.98 6 7 C4.02 4.69 2.04 2.38 0 0 Z " fill="#48CBC5" transform="translate(279,253)"/>
<path d="M0 0 C0.33 1.32 0.66 2.64 1 4 C1.66 4 2.32 4 3 4 C2.67 5.65 2.34 7.3 2 9 C-0.57781906 6.42218094 -0.62129616 4.5598161 -1 1 C-0.67 0.67 -0.34 0.34 0 0 Z " fill="#49CBBD" transform="translate(209,227)"/>
<path d="M0 0 C1.98 0.66 3.96 1.32 6 2 C6.33 3.65 6.66 5.3 7 7 C5.83040013 6.02433888 4.66438823 5.044375 3.5 4.0625 C2.8503125 3.51722656 2.200625 2.97195312 1.53125 2.41015625 C1.0259375 1.94480469 0.520625 1.47945312 0 1 C0 0.67 0 0.34 0 0 Z " fill="#123A32" transform="translate(279,184)"/>
<path d="M0 0 C-1.98 0.33 -3.96 0.66 -6 1 C-6 1.66 -6 2.32 -6 3 C-6.99 3.33 -7.98 3.66 -9 4 C-9.66 3.34 -10.32 2.68 -11 2 C-3.57142857 -1.57142857 -3.57142857 -1.57142857 0 0 Z " fill="#184A3D" transform="translate(245,183)"/>
</svg>
